<svg xmlns="http://www.w3.org/2000/svg" width="512" height="512" viewBox="0 0 512 512" role="img" aria-label="WordFan"><defs><linearGradient id="bgGrad" x1="0" y1="0" x2="1" y2="1"><stop offset="0" stop-color="#FFB259"/><stop offset="0.55" stop-color="#FF7E9D"/><stop offset="1" stop-color="#FF5DA2"/></linearGradient><radialGradient id="shine" cx="0.28" cy="0.22" r="0.9"><stop offset="0" stop-color="#FFFFFF" stop-opacity="0.38"/><stop offset="0.5" stop-color="#FFFFFF" stop-opacity="0"/></radialGradient><linearGradient id="fanGrad" x1="0" y1="0" x2="0" y2="1"><stop offset="0" stop-color="#FFFFFF"/><stop offset="1" stop-color="#FFF1F7"/></linearGradient><linearGradient id="pivotGrad" x1="0" y1="0" x2="1" y2="1"><stop offset="0" stop-color="#FFD970"/><stop offset="1" stop-color="#FF9F45"/></linearGradient></defs><rect x="0" y="0" width="512" height="512" rx="0" fill="url(#bgGrad)"/><rect x="0" y="0" width="512" height="512" rx="0" fill="url(#shine)"/><g transform="translate(256 256) scale(1.0) translate(-256 -256)"><rect x="243.00" y="354.00" width="26" height="58" rx="13" fill="url(#pivotGrad)"/><path d="M196.66 334.03 L74.27 284.58 A196.00 196.00 0 0 1 437.73 284.58 L315.34 334.03 A64.00 64.00 0 0 0 196.66 334.03 Z" fill="url(#fanGrad)" stroke="#FF6FA0" stroke-width="3" stroke-opacity="0.25"/><path d="M203.52 311.68 L115.04 233.60 M221.91 296.86 L164.45 193.80 M244.19 289.00 L224.28 172.70 M267.81 289.00 L287.72 172.70 M290.09 296.86 L347.55 193.80 M308.48 311.68 L396.96 233.60" stroke="#FF8FB7" stroke-width="6" stroke-linecap="round" stroke-opacity="0.45" fill="none"/><circle cx="111.38" cy="268.63" r="11" fill="#5FD1BE"/><circle cx="149.35" cy="225.62" r="11" fill="#6FB1FF"/><circle cx="199.45" cy="197.68" r="11" fill="#FFD15C"/><circle cx="256.00" cy="188.00" r="11" fill="#FF8FB1"/><circle cx="312.55" cy="197.68" r="11" fill="#B58CFF"/><circle cx="362.65" cy="225.62" r="11" fill="#5FD1BE"/><circle cx="400.62" cy="268.63" r="11" fill="#FFD15C"/><circle cx="256.00" cy="358.00" r="26" fill="url(#pivotGrad)"/><circle cx="249.00" cy="351.00" r="7" fill="#FFFFFF" opacity="0.55"/></g></svg>